<svg width="1067" height="568" fill="none" xmlns="http://www.w3.org/2000/svg"><g clip-path="url(#clip0_253_8093)" fill="#E3E6EA"><g opacity=".22"><path d="M712.466 330.219c0-6.114-.312-12.193-.833-18.168l40.403-10.421-18.119-69.268-41.201 10.769a201.72 201.72 0 00-33.426-49.363l26.449-34.286-56.648-43.77-26.796 34.738a200.214 200.214 0 00-55.849-18.793V87.331h-71.573v44.152a198.368 198.368 0 00-53.246 17.369l-26.276-35.016-57.307 42.936 25.998 34.738a203.745 203.745 0 00-26.172 34.287l-40.194-14.799-24.714 67.218 39.431 14.555a201.486 201.486 0 00-3.471 37.448c0 4.412.243 8.823.486 13.166l-40.021 10.421 18.153 69.302 39.119-10.248a202.896 202.896 0 0033.391 51.517l-24.297 31.577 56.474 43.839 23.95-31.056a201.25 201.25 0 0058.661 20.218V568h71.573v-39.045a200.943 200.943 0 0055.988-18.898l23.534 31.264 57.307-42.936-23.742-31.716a200.965 200.965 0 0026.484-36.301l37.765 13.895 24.748-67.217-38.598-14.208a202.476 202.476 0 002.569-32.619zM510.659 465.176a137.341 137.341 0 01-76.346-23.178 137.506 137.506 0 01-50.612-61.72 137.631 137.631 0 01-7.82-79.46 137.556 137.556 0 0137.608-70.416 137.393 137.393 0 0170.361-37.639 137.323 137.323 0 0179.397 7.826 137.453 137.453 0 0161.672 50.653 137.622 137.622 0 0112.699 129.036 137.539 137.539 0 01-29.789 44.617 137.403 137.403 0 01-44.582 29.812 137.332 137.332 0 01-52.588 10.469z"/><path d="M537.698 373.954v-.521l-28.706-97.266c-.2-.658-.455-1.297-.763-1.911a33.745 33.745 0 001.069-52.015 33.69 33.69 0 00-17.835-7.908l8.782 29.666-25.755 7.608-8.747-29.666a33.733 33.733 0 00-10.692 16.324 33.741 33.741 0 0011.048 35.695 33.688 33.688 0 0018.04 7.417 11.1 11.1 0 00.382 1.98l28.706 97.267v.277a33.7 33.7 0 00-11.242 16.008 33.73 33.73 0 00-.459 19.56 33.7 33.7 0 0010.479 16.519 33.657 33.657 0 0017.883 7.906l-8.782-29.632 25.721-7.607 8.781 29.631a33.694 33.694 0 0010.65-16.219 33.72 33.72 0 00-10.798-35.566 33.656 33.656 0 00-17.866-7.547h.104zm-10.83-5.732a4.131 4.131 0 01-7.775 2.293l-24.61-83.371a3.713 3.713 0 012.916-4.342 3.78 3.78 0 014.859 2.049l24.61 83.371z"/></g><path opacity=".2" d="M1044.78 254.733c0-3.473-.17-6.947-.48-10.143l22.56-5.906-10.14-38.628-22.97 6.009a112.663 112.663 0 00-18.64-27.547l14.75-19.106-31.623-24.316-14.925 19.349a111.004 111.004 0 00-31.24-10.421v-24.769h-39.708v24.63a110.631 110.631 0 00-29.678 9.726l-14.682-19.592-31.934 23.969 14.335 19.349a114.02 114.02 0 00-14.578 19.176l-22.423-8.268-13.676 37.552 22.006 8.094a112.122 112.122 0 00-1.978 20.842c0 2.467 0 4.898.278 7.33l-22.319 5.871 10.101 38.628 21.763-5.697a112.752 112.752 0 0018.605 28.729l-13.503 17.785 31.622 24.317 13.363-17.369a112.269 112.269 0 0032.698 11.29v21.78h39.951v-21.78a111.006 111.006 0 0031.24-10.422l13.155 17.543 31.93-23.969-13.29-17.786a113.12 113.12 0 0014.75-20.252l21.07 7.781 13.88-37.482-21.52-7.92c.92-6.081 1.34-12.227 1.25-18.377zM937.182 330.01a76.628 76.628 0 01-44.429-10.752 76.725 76.725 0 01-30.42-34.144 76.79 76.79 0 01-5.601-45.4 76.76 76.76 0 0121.208-40.523 76.655 76.655 0 0140.481-21.245 76.619 76.619 0 0145.367 5.584 76.692 76.692 0 0134.131 30.427 76.803 76.803 0 0110.771 44.459 76.785 76.785 0 01-22.288 49.27 76.646 76.646 0 01-49.22 22.324zM247.208 149.929c0-3.474 0-6.948-.486-10.144l22.562-5.905-10.101-38.629-22.978 6.01a113.362 113.362 0 00-18.674-27.547l14.752-19.106-31.587-24.316-14.926 19.383a110.006 110.006 0 00-31.239-10.421V14.45h-39.986v24.63a111.013 111.013 0 00-29.713 9.726L70.323 29.215 38.355 53.184l14.51 19.349A112.367 112.367 0 0038.18 91.708l-22.353-8.337-13.884 37.482 22.006 8.129a111.457 111.457 0 00-1.978 20.843c0 2.466 0 4.898.243 7.329L0 163.268l10.1 38.525 21.834-5.732a112.833 112.833 0 0018.64 28.728L37 242.401l31.587 24.317 13.363-17.369a112.135 112.135 0 0032.594 11.429v21.78h39.917v-21.78a111.212 111.212 0 0031.239-10.422l13.121 17.369 31.968-23.969-13.329-17.786a111.566 111.566 0 0014.752-20.252l21.173 7.851 13.885-37.482-21.521-7.921a112.744 112.744 0 001.458-18.237zm-112.566 75.277a76.598 76.598 0 01-42.58-12.926 76.691 76.691 0 01-28.227-34.423 76.757 76.757 0 01-4.361-44.316 76.72 76.72 0 0120.975-39.272 76.622 76.622 0 0139.241-20.992 76.584 76.584 0 0144.281 4.365 76.65 76.65 0 0134.395 28.25 76.74 76.74 0 017.083 71.965 76.716 76.716 0 01-16.614 24.884 76.595 76.595 0 01-54.193 22.465zM819.446 47.765c0-1.216 0-2.397-.174-3.474l7.949-2.084-3.471-13.618-8.053 2.015a37.97 37.97 0 00-6.734-9.761l5.207-6.774-11.142-8.51-5.242 6.947a39.466 39.466 0 00-11.003-3.683V0h-13.884v8.684a39.934 39.934 0 00-10.413 3.474l-5.172-6.947-11.246 8.441 5.102 6.948a38.85 38.85 0 00-5.137 6.739l-8.157-3.022-4.859 13.235 7.74 2.848a39.56 39.56 0 00-.694 7.365v2.57l-7.879 2.084 3.679 13.583 7.706-2.015a40.021 40.021 0 006.56 10.144l-4.79 6.183 11.142 8.615 4.721-6.114a40.477 40.477 0 0011.523 4.03v7.677h13.885v-7.677a40.944 40.944 0 0011.038-3.717l4.616 6.183 11.246-8.441-4.686-6.288a39.012 39.012 0 005.207-6.947l7.428 2.744 4.859-13.235-7.566-2.78c.416-2.176.648-4.384.694-6.6zm-37.939 26.47a26.985 26.985 0 01-15.634-3.813 27.02 27.02 0 01-10.692-12.037 27.05 27.05 0 01-1.951-15.987 27.032 27.032 0 017.482-14.258 26.994 26.994 0 0130.228-5.493 27.015 27.015 0 0112.013 10.716 27.04 27.04 0 01-4.077 33.024 26.996 26.996 0 01-17.369 7.848zM230.79 505.229v.173l22.389 31.264c.133.219.297.418.486.591a12.861 12.861 0 00.298 14.189 12.846 12.846 0 005.793 4.616 12.828 12.828 0 007.376.648l-6.942-9.553 8.296-5.94 6.942 9.553a12.824 12.824 0 00-6.536-18.554 12.796 12.796 0 00-7.348-.482 3.214 3.214 0 00-.382-.66l-22.354-31.265a12.82 12.82 0 00-.218-14.23 12.81 12.81 0 00-13.214-5.258l6.942 9.553-8.261 5.941-6.943-9.553a12.792 12.792 0 006.497 18.631 12.766 12.766 0 007.388.44l-.209-.104zm4.617.729a1.557 1.557 0 01-.119-1.071 1.559 1.559 0 011.639-1.185c.369.029.716.188.979.45l19.195 26.887a1.563 1.563 0 01-2.499 1.806l-19.195-26.887zm657.173-13.652a12.748 12.748 0 002.337-6.865 12.748 12.748 0 00-1.782-7.03l-6.942 9.553-8.018-6.079 6.942-9.553a12.755 12.755 0 00-7.413.609 12.782 12.782 0 00-8.066 11.733 12.79 12.79 0 002.081 7.146l-22.388 31.264a3.405 3.405 0 00-.382.695 12.81 12.81 0 00-15.665 11.885c-.119 2.507.5 4.993 1.781 7.151l6.942-9.588 8.295 5.941-6.942 9.553a12.807 12.807 0 0013.183-5.23 12.832 12.832 0 00.285-14.189c.189-.173.352-.372.486-.591l22.388-31.264v-.173a12.774 12.774 0 0012.878-4.968zm-37.071 32.654a1.565 1.565 0 01-2.016.159 1.562 1.562 0 01-.483-1.966l19.195-26.887a1.561 1.561 0 012.499 1.772l-19.195 26.922z"/></g><defs><clipPath id="clip0_253_8093"><path fill="#fff" d="M0 0h1067v568H0z"/></clipPath></defs></svg>