<svg width="80" height="80" fill="none" xmlns="http://www.w3.org/2000/svg"><g clip-path="url(#clip0_162_8252)" stroke="#F39200" stroke-width="2" stroke-linecap="round" stroke-linejoin="round"><path d="M33.333 43.333a6.667 6.667 0 1013.333 0 6.667 6.667 0 00-13.333 0zM26.667 70v-3.333A6.667 6.667 0 0133.334 60h13.333a6.667 6.667 0 016.667 6.667V70M50 16.667a6.667 6.667 0 1013.333 0 6.667 6.667 0 00-13.333 0zm6.667 16.666h6.667A6.667 6.667 0 0170 40v3.333M16.667 16.667a6.667 6.667 0 1013.333 0 6.667 6.667 0 00-13.333 0zM10 43.333V40a6.667 6.667 0 016.667-6.667h6.666"/></g><defs><clipPath id="clip0_162_8252"><path fill="#fff" d="M0 0h80v80H0z"/></clipPath></defs></svg>