<svg width="80" height="80" fill="none" xmlns="http://www.w3.org/2000/svg"><g clip-path="url(#clip0_382_17439)" stroke="#F39200" stroke-width="2" stroke-linecap="round" stroke-linejoin="round"><path d="M46.667 10v13.333A3.334 3.334 0 0050 26.667h13.334"/><path d="M56.667 70H23.334a6.667 6.667 0 01-6.667-6.667V16.667A6.667 6.667 0 0123.334 10h23.333l16.667 16.667v36.666A6.667 6.667 0 0156.667 70z"/><path d="M39.333 56.057l-7.24 3.793a1.307 1.307 0 01-1.893-1.367l1.383-8.036-5.856-5.69a1.297 1.297 0 01.723-2.217l8.093-1.173 3.62-7.31a1.306 1.306 0 012.34 0l3.62 7.31 8.094 1.173a1.3 1.3 0 01.723 2.217l-5.857 5.69 1.38 8.033a1.299 1.299 0 01-1.89 1.37l-7.24-3.793z"/></g><defs><clipPath id="clip0_382_17439"><path fill="#fff" d="M0 0h80v80H0z"/></clipPath></defs></svg>