<svg width="81" height="80" fill="none" xmlns="http://www.w3.org/2000/svg"><path d="M58.002 63.45l-6.465 3.414a1.16 1.16 0 01-1.616-.593 1.185 1.185 0 01-.074-.637l1.235-7.232-5.229-5.12a1.17 1.17 0 01-.296-1.202 1.168 1.168 0 01.942-.794l7.226-1.055 3.232-6.579A1.172 1.172 0 0158.002 43a1.16 1.16 0 011.044.652l3.233 6.579 7.226 1.055a1.156 1.156 0 01.938.795 1.178 1.178 0 01-.293 1.2l-5.229 5.12 1.232 7.23a1.178 1.178 0 01-.462 1.146 1.154 1.154 0 01-1.225.087l-6.464-3.414zm-35 0l-6.464 3.414a1.16 1.16 0 01-1.617-.593 1.185 1.185 0 01-.074-.637l1.235-7.232-5.229-5.12a1.17 1.17 0 01-.296-1.202 1.168 1.168 0 01.942-.794l7.226-1.055 3.232-6.579A1.172 1.172 0 0123.002 43a1.16 1.16 0 011.044.652l3.233 6.579 7.226 1.055a1.156 1.156 0 01.938.795 1.178 1.178 0 01-.293 1.2l-5.229 5.12 1.232 7.23a1.178 1.178 0 01-.462 1.146 1.154 1.154 0 01-1.225.087l-6.464-3.414zm17.5-30l-6.206 3.414a1.076 1.076 0 01-1.173-.09 1.17 1.17 0 01-.379-.503 1.23 1.23 0 01-.07-.637l1.185-7.232-5.02-5.12a1.181 1.181 0 01-.306-.558 1.223 1.223 0 01.022-.644c.064-.208.183-.392.343-.533.16-.14.355-.23.56-.26l6.938-1.056 3.103-6.579c.093-.196.236-.36.413-.476a1.081 1.081 0 011.18 0c.177.115.32.28.413.476l3.102 6.579 6.937 1.055c.206.031.4.122.559.263.159.14.277.325.342.532.065.208.072.43.023.642-.05.212-.155.406-.304.558l-5.02 5.12 1.183 7.23c.036.215.013.437-.066.64a1.157 1.157 0 01-.378.506 1.07 1.07 0 01-1.176.086l-6.205-3.413z" stroke="#F39200" stroke-width="2" stroke-linecap="round" stroke-linejoin="round"/></svg>