<svg width="71" height="71" fill="none" xmlns="http://www.w3.org/2000/svg"><path d="M15.678 60.64c5.552 4.533 12.01 6.734 19.168 6.889 7.16.155 13.66-1.885 19.613-6.19l1.95 2.678c-12.829 10.065-33.906 9.821-47.19-4.422-12.606-13.508-12.256-35.638.988-49.047C23.773-3.17 45.65-3.595 59.846 9.745c13.88 13.04 14.167 33.605 4.322 46.454l-2.586-1.957c.419-.689.784-1.318 1.157-1.911a32.125 32.125 0 00-1.44-35.806c-.959-1.318-1.977-1.96-3.664-1.842-2.204.155-4.424.06-6.635.033-1.605-.02-2.669.692-3.295 2.155-2.2 5.06-4.434 10.104-6.615 15.171-.788 1.826-.33 2.471 1.67 2.504 1.842.027 3.69-.03 5.532.02 1.733.046 2.306.946 1.624 2.514-3.075 6.89-6.162 13.77-9.261 20.64-.771 1.717-2.122 2.386-3.98 2.376-6.332-.04-12.661 0-18.993 0H15.77l-.093.544zm40.504-48.952c-.224-.52-.25-.728-.365-.833A18.427 18.427 0 0054.4 9.682C47.122 4.41 38.998 2.536 30.194 4.018 6.803 7.972-4.296 34.658 9.257 54.021c1.502 2.145 2.656 3.021 5.858 3.057 1.245 0 2.576-.036 3.865-.036 1.703 0 2.965-.748 3.683-2.283 2.431-5.16 4.863-10.319 7.248-15.485.659-1.456.277-1.996-1.38-2.033-1.905-.042-3.809 0-5.713 0-2.428 0-3.035-.87-2.06-3.054 3.022-6.773 6.099-13.508 9.117-20.295.682-1.528 1.693-2.223 3.413-2.2 5.271.069 10.57.023 15.854.023l7.04-.027z" fill="#005495"/><path d="M57.378 63.865c-1.46-2.247-3.446-3.6-2.444-6.26.718-1.924 2.174-3.123 3.953-2.965 1.476.132 2.873 1.338 4.247 2.155.128.079 0 .945-.24 1.222-1.69 1.875-3.47 3.694-5.516 5.848z" fill="#005495"/></svg>