<svg width="81" height="77" fill="none" xmlns="http://www.w3.org/2000/svg"><path d="M38.026 13.3L33.214 10 10.122 47.802l5.499 2.75 22.956-12.647-.55-24.605zM48.335 10l-4.812 3.575v24.468l21.994 12.509 6.46-2.612L48.336 10zM41.25 42.166L18.506 54.264l-1.1 5.773h46.325l-.825-5.91-21.656-11.96z" fill="#00A551"/><path d="M69.916 55.225l9.623-5.346L49.985 1.203l-8.735 7.01-9.548-7.01L1.461 50.552l10.584 4.536-.274 2.474H7.784v18.235h65.981V57.562h-3.849v-2.337zm2.076 4.11v14.698H9.557V59.334h3.801l.175-1.577.275-2.474.145-1.308-1.209-.518-8.7-3.728L32.207 3.773l7.994 5.87 1.097.805 1.062-.852 7.158-5.745 27.549 45.372-8.012 4.452-.912.507v5.153h3.849z" fill="#00A551"/><path d="M69.917 57.562h3.848v18.235H7.785V57.562h3.986l.274-2.474-10.584-4.536L31.702 1.203l9.548 7.01 8.735-7.01 29.554 48.675-9.622 5.347v2.337z" stroke="#00A551" stroke-miterlimit="10"/><path d="M22.26 70.274c-.621.177-1.655.32-3.05.32-3.085 0-5.136-1.192-5.136-3.156 0-1.688 1.172-2.99 2.93-3.74 1.206-.53 2.62-.784 4.256-.784 1.258 0 2.206.188 2.55.31l-.689 1.29c-.327-.11-1.103-.242-2.102-.242-1 0-1.947.198-2.654.573-.965.519-1.602 1.369-1.602 2.406 0 1.191 1.05 1.986 3.084 1.986.827 0 1.637-.088 2.206-.243l.206 1.28zm1.758.199l2.205-7.438h2.912l1.534 2.836c.465.95.775 1.722 1.051 2.538h.052c.052-.761.224-1.578.534-2.67l.793-2.703h2.326l-2.206 7.437h-2.567l-1.62-2.968c-.517-1.015-.827-1.689-1.137-2.593h-.052c-.12.728-.396 1.776-.74 2.957l-.776 2.604h-2.31zm16.575-7.438l-.862 2.891h4.205l.862-2.89h2.498l-2.205 7.437h-2.482l.913-3.134h-4.221l-.913 3.134h-2.482l2.206-7.438h2.48zm11.097 1.391h-3.067l.43-1.39h8.634l-.414 1.39h-3.101l-1.792 6.047h-2.482l1.792-6.047zm14.01 5.848c-.62.177-1.654.32-3.05.32-3.084 0-5.134-1.192-5.134-3.156 0-1.688 1.171-2.99 2.93-3.74 1.205-.53 2.618-.784 4.255-.784 1.258 0 2.206.188 2.55.31l-.688 1.29c-.328-.11-1.103-.242-2.103-.242-1 0-1.947.198-2.653.573-.965.519-1.603 1.369-1.603 2.406 0 1.191 1.051 1.986 3.084 1.986.828 0 1.638-.088 2.206-.243l.207 1.28z" fill="#00A551"/></svg>