<svg width="72" height="77" fill="none" xmlns="http://www.w3.org/2000/svg"><path d="M35.422 52.658l-.004-7.244a.328.328 0 00-.17-.302L3.919 26.644a.254.254 0 01-.136-.236v-7.205a.087.087 0 01.042-.073.082.082 0 01.083 0l31.306 18.457c.143.085.215.042.215-.128V30.49a.338.338 0 00-.177-.31L10.305 15.47c-.149-.086-.149-.172 0-.26L35.263.499a.346.346 0 01.378 0l31.298 18.449a.399.399 0 01.189.337l-.004 7.022c-.002.173-.075.217-.219.132L35.66 8.017a.374.374 0 00-.412 0l-12.25 7.216a.126.126 0 000 .213l12.246 7.22a.126.126 0 00.125 0 .12.12 0 00.06-.108v-6.969c0-.188.08-.236.238-.143l31.291 18.45c.11.066.166.166.166.297v7.093a.122.122 0 01-.185.108L35.622 22.929c-.118-.07-.178-.034-.178.105v6.864a.626.626 0 00.303.534L66.935 48.82a.368.368 0 01.193.34l-.004 6.989c0 .19-.082.238-.245.143L35.697 37.91c-.168-.1-.253-.051-.253.148v6.933a.343.343 0 00.167.294l25.018 14.75a.13.13 0 01.064.115.133.133 0 01-.064.114l-24.992 14.73a.367.367 0 01-.37 0L3.885 56.492a.191.191 0 01-.102-.178V49.16c0-.155.066-.194.197-.116L35.293 67.5a.285.285 0 00.318 0l12.273-7.227c.13-.078.13-.155 0-.233l-12.462-7.382z" fill="#000"/><path d="M35.422 52.658l.003 7.25c0 .163-.069.204-.207.125L3.953 41.603a.332.332 0 01-.17-.306V34.27c0-.183.078-.23.234-.139l31.405 18.527z" fill="#000"/></svg>