<svg width="11" height="11" fill="none" xmlns="http://www.w3.org/2000/svg"><g clip-path="url(#clip0_16_18223)"><path d="M2.668 2.25c1.787-1.267 4.34-1.163 5.992.246 1.68 1.433 1.91 3.776.528 5.453-1.303 1.58-3.65 2.1-5.606 1.286l-.106-.047-2.005.427-.035.006-.05.004-.052-.002-.02-.002-.05-.01-.049-.015-.045-.02-.035-.02-.05-.035-.037-.034-.033-.038-.025-.034-.03-.053-.019-.048-.014-.052-.006-.034-.004-.05.002-.053.002-.02.01-.05.01-.033.526-1.582-.01-.016C.444 5.706.903 3.577 2.562 2.328l.106-.077z" fill="#DBDBDD"/></g><defs><clipPath id="clip0_16_18223"><path fill="#fff" d="M0 0h11v11H0z"/></clipPath></defs></svg>