<svg width="39" height="39" fill="none" xmlns="http://www.w3.org/2000/svg"><g clip-path="url(#clip0_367_13872)" stroke="#F39200" stroke-width="2" stroke-linecap="round" stroke-linejoin="round"><path d="M11.375 17.875a3.25 3.25 0 013.25-3.25h16.25a3.25 3.25 0 013.25 3.25v9.75a3.25 3.25 0 01-3.25 3.25h-16.25a3.25 3.25 0 01-3.25-3.25v-9.75z"/><path d="M19.5 22.75a3.25 3.25 0 106.5 0 3.25 3.25 0 00-6.5 0zm8.125-8.125v-3.25a3.25 3.25 0 00-3.25-3.25H8.125a3.25 3.25 0 00-3.25 3.25v9.75a3.25 3.25 0 003.25 3.25h3.25"/></g><defs><clipPath id="clip0_367_13872"><path fill="#fff" d="M0 0h39v39H0z"/></clipPath></defs></svg>