<svg width="39" height="39" fill="none" xmlns="http://www.w3.org/2000/svg"><g clip-path="url(#clip0_367_13954)" stroke="#F39200" stroke-width="2" stroke-linecap="round" stroke-linejoin="round"><path d="M14.625 30.875a3.25 3.25 0 106.5 0 3.25 3.25 0 00-6.5 0zM9.75 26l4.875 3.25m4.875-1.625l13-19.5m-4.875 8.125l3.25 1.625M15.588 7.63l5.372 3.418a2.112 2.112 0 01.643 2.925l-5.027 7.818a2.113 2.113 0 01-2.912.64l-5.372-3.419a2.114 2.114 0 01-.644-2.925l5.028-7.816a2.113 2.113 0 012.912-.642z"/></g><defs><clipPath id="clip0_367_13954"><path fill="#fff" d="M0 0h39v39H0z"/></clipPath></defs></svg>