<svg width="39" height="39" fill="none" xmlns="http://www.w3.org/2000/svg"><g clip-path="url(#clip0_367_13967)" stroke="#F39200" stroke-width="2" stroke-linecap="round" stroke-linejoin="round"><path d="M4.875 27.625a3.25 3.25 0 106.5 0 3.25 3.25 0 00-6.5 0zm19.5 0a3.25 3.25 0 106.5 0 3.25 3.25 0 00-6.5 0zm-13 1.625h13m6.5 0h3.25V19.5m0 0c0-3.017-.856-5.91-2.38-8.043-1.524-2.134-3.59-3.332-5.745-3.332h-1.625L26.813 19.5h7.312zM19.5 29.25V8.125h4.875"/><path d="M4.875 27.625V19.5H19.5"/></g><defs><clipPath id="clip0_367_13967"><path fill="#fff" d="M0 0h39v39H0z"/></clipPath></defs></svg>