<svg width="40" height="40" fill="none" xmlns="http://www.w3.org/2000/svg"><path fill-rule="evenodd" clip-rule="evenodd" d="M10.25 0h13.374l11.334 11.814v22.979A5.202 5.202 0 0129.761 40H10.25a5.204 5.204 0 01-5.208-5.207V5.207A5.204 5.204 0 0110.25 0z" fill="#E5252A"/><path opacity=".302" fill-rule="evenodd" clip-rule="evenodd" d="M23.613 0v11.724h11.345L23.613 0z" fill="#fff"/><path d="M10.828 29.845V22.54h3.109c.77 0 1.379.21 1.839.64.46.42.69.99.69 1.699 0 .71-.23 1.28-.69 1.699-.46.43-1.07.64-1.84.64h-1.239v2.628h-1.869zm1.87-4.217h1.029c.28 0 .5-.06.65-.2.15-.13.23-.31.23-.55 0-.24-.08-.42-.23-.55-.15-.14-.37-.2-.65-.2h-1.03v1.5zm4.537 4.217V22.54h2.589c.51 0 .99.07 1.439.22.45.15.86.36 1.22.65.36.28.649.66.859 1.14.2.479.31 1.029.31 1.648 0 .61-.11 1.16-.31 1.64-.21.48-.5.859-.86 1.139-.36.29-.77.5-1.22.65-.449.15-.929.22-1.438.22h-2.59zm1.829-1.589h.54c.29 0 .56-.03.81-.1.24-.07.47-.18.689-.33.21-.15.38-.36.5-.64s.18-.609.18-.989c0-.39-.06-.72-.18-1a1.48 1.48 0 00-.5-.639c-.22-.15-.45-.26-.69-.33-.25-.07-.52-.1-.81-.1h-.539v4.128zm5.527 1.59v-7.307h5.198v1.59H26.46v1.169h2.659v1.579H26.46v2.968h-1.869z" fill="#fff"/></svg>