<svg width="191" height="110" fill="none" xmlns="http://www.w3.org/2000/svg"><path d="M75.667 79.645c5.551 4.534 12.008 6.735 19.168 6.89 7.159.154 13.659-1.885 19.613-6.191l1.95 2.678c-12.829 10.066-33.908 9.822-47.192-4.42-12.605-13.509-12.256-35.639.988-49.048 13.567-13.719 35.444-14.144 49.64-.804 13.88 13.04 14.167 33.605 4.323 46.454l-2.586-1.957c.418-.688.784-1.317 1.156-1.91a32.12 32.12 0 00-1.44-35.806c-.959-1.318-1.977-1.96-3.663-1.842-2.205.155-4.425.06-6.636.033-1.604-.02-2.668.692-3.294 2.154-2.201 5.061-4.435 10.105-6.616 15.172-.787 1.825-.329 2.471 1.67 2.504 1.842.026 3.69-.03 5.532.02 1.733.046 2.306.945 1.624 2.514a5686.34 5686.34 0 01-9.261 20.64c-.77 1.717-2.122 2.386-3.98 2.376-6.332-.04-12.661 0-18.993 0h-1.911l-.092.543zm40.504-48.95c-.224-.521-.251-.729-.366-.834a18.475 18.475 0 00-1.417-1.173c-7.278-5.272-15.402-7.146-24.205-5.664-23.392 3.954-34.492 30.64-20.938 50.003 1.503 2.144 2.656 3.02 5.858 3.057 1.246 0 2.577-.036 3.865-.036 1.703 0 2.965-.748 3.683-2.283a2180.48 2180.48 0 007.248-15.485c.66-1.456.277-1.997-1.38-2.033-1.904-.043-3.809 0-5.713 0-2.428 0-3.034-.87-2.06-3.054 3.022-6.774 6.1-13.508 9.117-20.295.682-1.529 1.694-2.224 3.413-2.2 5.272.069 10.569.023 15.854.023l7.041-.027z" fill="#005495"/><path d="M117.378 82.865c-1.459-2.247-3.446-3.6-2.444-6.26.718-1.924 2.174-3.123 3.953-2.965 1.476.132 2.873 1.338 4.247 2.155.128.079 0 .945-.241 1.222-1.69 1.875-3.469 3.694-5.515 5.848z" fill="#005495"/></svg>