<svg width="191" height="110" fill="none" xmlns="http://www.w3.org/2000/svg"><rect x="58" y="18" width="76" height="74" rx="11" fill="#FFD029"/><path d="M95.582 65.613l-.002-5.174a.234.234 0 00-.123-.216L72.83 47.031a.181.181 0 01-.099-.168v-5.146a.061.061 0 01.03-.053.059.059 0 01.06 0l22.61 13.183c.104.061.156.03.156-.09v-4.978a.24.24 0 00-.128-.221L77.443 39.05c-.108-.061-.108-.123 0-.186l18.025-10.508a.252.252 0 01.273 0l22.604 13.178a.278.278 0 01.136.24l-.002 5.017c-.002.123-.055.155-.159.094L95.754 33.726a.272.272 0 00-.297 0l-8.848 5.155a.088.088 0 00-.042.076.089.089 0 00.042.076l8.845 5.157a.092.092 0 00.09 0 .088.088 0 00.044-.077v-4.978c0-.134.057-.168.172-.102l22.599 13.178c.08.048.12.119.12.213v5.066a.098.098 0 01-.011.044.088.088 0 01-.033.033.089.089 0 01-.09 0L95.727 44.378c-.086-.05-.128-.025-.128.075v4.903a.443.443 0 00.218.381l22.525 13.134a.262.262 0 01.139.243l-.002 4.992c0 .136-.059.17-.178.102L95.781 55.08c-.121-.072-.182-.037-.182.105v4.953a.246.246 0 00.12.21l18.069 10.535a.093.093 0 01.046.082.093.093 0 01-.046.082l-18.05 10.521a.268.268 0 01-.267 0L72.805 68.352a.136.136 0 01-.074-.128v-5.11c0-.11.048-.138.142-.083L95.49 76.215a.207.207 0 00.229 0l8.864-5.163c.094-.056.094-.11 0-.166l-9-5.273z" fill="#000"/><path d="M95.582 65.613l.003 5.179c0 .116-.05.145-.15.088l-22.58-13.164a.236.236 0 01-.123-.218v-5.02c0-.13.057-.163.17-.099l22.68 13.234z" fill="#000"/></svg>