<svg width="88" height="95" fill="none" xmlns="http://www.w3.org/2000/svg"><path fill-rule="evenodd" clip-rule="evenodd" d="M.052 74.823h86.947v16.989c-14.472 1.775-28.991 3.155-43.477 3.155-14.486 0-28.984-1.34-43.47-3.055v-17.09zm1.131 1.119v14.986c14.065 1.641 28.202 2.94 42.365 2.94 14.164 0 28.32-1.34 42.392-3.034V75.942H1.183z" fill="#1D1D1B" stroke="#1D1D1B" stroke-width=".57" stroke-miterlimit="22.93"/><path fill-rule="evenodd" clip-rule="evenodd" d="M42.57 55.931c.13.462.657.523.828.965h1.237c.06-1.005-1.276-1.052-2.066-.965zm1.737 1.286c0 .06 0 .154.085.161.244.931.697 1.89.987 2.894.29 1.005.23 2.204 1.072 2.733a20.137 20.137 0 00-1.151-5.868c-.329 0-.796-.074-.993.08z" fill="#F49E28"/><path fill-rule="evenodd" clip-rule="evenodd" d="M36.793 59.468c-.112.188-.375.228-.58.322.326.064.657.09.988.08.789-2.793 2.52-5.185 6.447-4.421.059-.442-.106-.67-.086-1.045-4.243-.858-6.44 1.587-6.77 5.064z" fill="#F49E28"/><path fill-rule="evenodd" clip-rule="evenodd" d="M42.74 53.117c-.368-.603-2.394-.549-3.138-.402a5.075 5.075 0 00-2.809 1.688c-.796.985-1.013 2.305-1.408 3.538-.585 0-1.315.127-1.973.16-.94.04-1.901-.14-2.23.242-.033.515.658.301.908.321 1.52.094 2.993.074 4.38.08.784-3.081 2.632-5.426 6.935-4.823-.04-.797-1.158-.61-1.816-.563-2.099.135-3.822.959-4.546 1.93 0-.054 0-.1.086-.08.894-1.649 3-2.117 5.611-2.09zm19.235 7.959c.546-.79.928-1.728 1.487-2.492 0-.215 0-.462-.079-.563.08 0 .099.06.165.08.065.02.092.175.164.242 2.908.087 5.71.281 8.506.482a8.1 8.1 0 00.743 1.447c.385.56.666 1.187.83 1.849 0 .234-.165.71.164.884.046-1.95-1.086-3.45-1.823-4.904-3.105-.08-5.887-.482-8.913-.67-.658 1.602-2.21 2.774-2.066 4.904h.415c.296-.107.197-.924 0-1.045.236 0 .447 0 .407-.24v.026z" fill="#F49E28"/><path fill-rule="evenodd" clip-rule="evenodd" d="M15.656 55.449c-1.678.073-3.533.087-5.204.16-1.401.054-2.572-.114-3.29.483.059.56.087 1.124.086 1.688.84.315 1.742.425 2.632.322 2.763-.121 6.052-.161 8.756-.08-.494.482-.217 1.714-.83 2.09-3.374.106-7.42.354-10.729 0-.158-.55-.118-1.287-.5-1.608a8.51 8.51 0 00-3.552-.402c-.546 0-1.276 0-1.566.321.527.315 2.099-.382 1.816.724-.467.294-1.316.22-2.066.24v1.528c1.033.067 2.375-.167 3.138.161a5.45 5.45 0 01.336 2.492c-.869.342-2.362.107-3.5.16-.342 2.01 1.349 1.77 3.138 1.85 9.598.409 21.472 0 31.05.482.355-1.226.75-2.68 1.08-3.859.104-.395.407-1.038.078-1.286-.73.442-.414 1.896-.993 2.492a22.216 22.216 0 01-4.54-.08c-.039-2.11.178-4.468-.493-5.949-3.947 0-8.045-.167-11.315.482.138-.382.533-.368.658-.804.125-.435-.079-.904 0-1.447-1.256-.388-2.69-.234-4.21-.16h.02zm22.289-6.029c-.323.495-.125 1.004-.244 1.688.112.046.151.167.165.321.434.114 1.013.08 1.486.16.166-.29.225-.633.165-.964-.277-.134-.763-.06-.908-.321.375.04.513-.148.908-.08v-.617c-.224-.315-1.145-.315-1.572-.16v-.028zM3.263 46.204a5.746 5.746 0 00.164 1.527c4.303-.214 8.848-.61 13.052-.67-4.316.436-8.92.583-13.157 1.126.197 2.117.138 4.522.579 6.592 7.644.1 15.676.16 23.117-.161-1.362-.174-3.119 0-4.454-.16 1.46-.242 3.29-.121 4.454-.67 0-.356.256-.45.17-.885-.262-.148-.815 0-.828-.402-.013-.402.592-.335.743-.67.349-.904-.25-1.293-.579-1.769.04-.314.619-.1.658-.401v-1.046c-1.02-.442-.763-1.42.493-1.205 1.014.167 1.316.817 1.402 1.849.21-1.803-.066-4.16.164-5.708.19.281.697.402.829.804.057.444.083.892.079 1.34.028 1.639.14 3.276.335 4.903v1.019c.046.114-.098.415.08.402v-.483c0-2.27-.152-4.837-.08-6.913.902.08 1.757.214 2.724.24.052-.38.136-.757.25-1.125 2.394-.67 5.026-1.165 7.348-1.929-.184-3.095-.079-6.465-.5-9.332a28.032 28.032 0 00-5.118-1.769 19.801 19.801 0 00-6.111-.723c-6.349.275-13.223 1.186-19.157 2.01-2.368.335-4.256.301-4.953 2.17 7.821-1.199 16.446-2.01 24.524-2.733-.184 2.405-.48 5.36-.822 7.805a12.98 12.98 0 01-.5 2.492 5.814 5.814 0 01-1.783 1.849c-.681.134-1.372.215-2.066.24a470.025 470.025 0 01-17.01 1.529c-.593.04-1.217 0-1.73.08-.132 0 0 .04.078.081.658.235 1.934 0 2.81 0 1.973-.087 4.223-.107 6.025-.241 2.599-.194 4.862-.57 7.355-.563-6.04.67-12.164 1.24-18.584 1.527v-.026z" fill="#F49E28"/><path fill-rule="evenodd" clip-rule="evenodd" d="M48.029.033c21.524 0 38.964 17.418 38.964 38.956.003 8.858-3.002 17.445-8.506 24.304 3.539-7.45 6.966-11.388 7.012-22.167.1-19.937-19.189-36.102-38.03-36.102-18.84 0-32.09 10.323-37.234 24.485C14.472 12.567 29.787.033 48.03.033z" fill="#F49E28"/><path fill-rule="evenodd" clip-rule="evenodd" d="M44.43 29.83c.67.242 1.31.566 1.902.966-.079.756.257 1.426.085 2.01-.19.14-.486-.215-.657-.403-.592-.616-1.316-1.527-1.974-2.09-1.046.1-2.256.201-3.388.322-1.131.12-2.23.516-2.973 0 1.184-.375 2.842-.288 4.131-.563 1.007-.034 1.868-.214 2.888-.241h-.013z" fill="#F49E28"/><path fill-rule="evenodd" clip-rule="evenodd" d="M31.445 31.887c.283.135.388.43.908.322.145.87-.165 2.76.743 3.135-.164.349-.585.456-.908.67V41.3c.138.342.744.234.908.563-.368.308-1.513-.134-1.408.67a3.09 3.09 0 00-1.4-.161c.4-3.47.328-7.37 1.157-10.458v-.027zm5.263.643c.85.141 1.875.108 2.316.67.25 2.627.303 5.447.493 8.127-1.224.3-2.465.524-3.716.67.065-.315.513-.255.578-.563-.27-1.447.362-3.638 0-4.91-.124-.436-.618-.49-.657-.885 1.026-.335.888-1.809.986-3.055v-.053z" fill="#1D1D1B"/><path fill-rule="evenodd" clip-rule="evenodd" d="M33.32 36.148c.566.261 1.849-.18 2.151.322a2.33 2.33 0 00-1.072.16c0 .39.612.53.658.892.046.361-.5.716-.494 1.125.007.409.6.737.823 1.206.223.469.085.797.335 1.286h-2.73c.171-1.608.053-3.497.33-4.99zM4.624 50.525a11.07 11.07 0 001.467-.375c.83-.315-1.368-.087-1.736-.067 0 .134.204.368.27.442zm19.203-1.749c-.277.536-.362 1.695-.908 2.09-.546.396-2.993.349-4.296.402-3.888.154-7.466.235-11.394.402A8.058 8.058 0 015 51.617a2.117 2.117 0 01-.899-.698 2.173 2.173 0 01-.416-1.07c6.578-.517 13.46-.67 20.15-1.046l-.007-.027zm-17.919 4.18c.362.114.329-.187.612-.154.283.034.816 0 1.04-.167a7.75 7.75 0 00-1.738-.08.511.511 0 00.086.401zm16.847-1.447c-.23.717-.585 1.83-1.315 2.171-.73.342-2.184.201-3.467.241-2.342.067-4.737.114-7.105.161-1.152.117-2.31.17-3.467.16a2.66 2.66 0 01-1.31-.676 2.736 2.736 0 01-.762-1.28c5.677-.401 11.598-.555 17.426-.803v.027zm-4.216 5.387c-1.086.355-2.382.067-3.632.16-1.4.094-3.13.161-4.789.161a6.125 6.125 0 01-1.815-.08v-.724c2.947-.502 6.539-.053 9.663-.321.084-.017.166-.044.244-.08.072 0 .079 0 .085.08.402-.047.198.502.244.804zm9.17 1.125c.158.194.079.67 0 .884-1.625.07-3.253.044-4.875-.08-.138-.288.145-.75.415-.884 1.46.047 3.137-.108 4.46.08zm.446 2.653c.171.228 0 .797.165 1.045-.434.09-.874.144-1.316.16.21.33.94.155 1.316.322.024.483-.123.959-.415 1.34a18.928 18.928 0 01-3.388.08c-1.348-.06-2.789.255-3.947-.08.04-1.34.204-2.532.987-3.135 1.04 0 2.079-.047 3.138 0a19.62 19.62 0 013.473.241l-.013.027zm-9.282 1.286c-3.394.818-8.348.77-12.223.402 3.947-.281 8.217-.208 12.223-.402zm20.315 5.95a1.86 1.86 0 01-.514-1.287c0-.48.184-.942.514-1.286-1.04.274-.842 2.492 0 2.572zm.908 1.928c-3.079-.401-3.572-4.535-1.408-6.029.46-.315.993-.348 1.487-.67-5.06-.85-4.638 7.838-.08 6.7zm-.83-7.074a3.384 3.384 0 012.395.724 4.031 4.031 0 011.316 2.17c.546 3.008-2.066 5.56-4.605 4.502a3.966 3.966 0 01-1.528-1.31 4.065 4.065 0 01-.702-1.905 3.875 3.875 0 01.751-2.727 3.745 3.745 0 012.387-1.454h-.013zm8.507.724c0 1.695 0 3.35-.08 4.984 2.527.2 5.139-.194 7.763-.16-2.532.374-5.447.374-8.091.669a47.263 47.263 0 01-.171-5.788c2.072 0 4.085.04 6.032.16h2.724c-.277.182-.908 0-1.316.081h-1.316c-1.697.168-3.697.04-5.532.08l-.013-.026zm11.808.402h.151a30.856 30.856 0 00-.085 3.698c-1.08.073-2.21.093-3.29.16a17.281 17.281 0 010-3.778c1.073.039 2.148.012 3.217-.08h.007z" fill="#1D1D1B"/><path fill-rule="evenodd" clip-rule="evenodd" d="M55.535 63.97c-.264 1.092.078 2.68-.08 3.698-2.23.214-4.664.228-7.019.322a33.785 33.785 0 01-.085-3.779.224.224 0 01.037-.152.217.217 0 01.127-.089h7.02zm-34.518.482c-.118.04-.427-.093-.414.08.125-.046.427.094.414-.08zm8.092.965c-3.947 0-8.151.1-12.388 0-.276 0-.539-.053-.822-.08-2.967-.322-7.48.087-11.23-.08-1.058-.048-2.275.1-2.973-.67 4.493-.604 10.243-.403 15.69-.403a24.915 24.915 0 013.552.08c.31.054.303.142.573.242 2.855 0 5.637 0 7.598.884v.027zm30.887-.241c.157-.174.052.583.085.804-.158.174-.053-.59-.085-.804zm-4.132.402c.132-.248.08.348.086.482-.125.241-.072-.348-.086-.482z" fill="#1D1D1B"/><path fill-rule="evenodd" clip-rule="evenodd" d="M54.048 71.205h1.316c-.033-.53-.395-.737-.414-1.286h-.244c-.105.543-.533.764-.658 1.286zm-32.201-2.09c-.118.931-.81 1.3-.993 2.17 3.25-.187 6.854 0 10.242-.08-.236-.797-.657-1.42-.914-2.17-2.756.047-5.493.114-8.335.08zm39.142-3.778h.493c.23-.154.158-.597.165-.965h-.658v.965zm9.907 3.215c1.572-.127 1.44-4.984 0-5.064a5.815 5.815 0 010 5.064zm-6.111-2.331c0 .572-.082 1.14-.244 1.688-.145.402-.513.67-.5 1.045 1.316-.214 1.493-2.566 1.243-4.02-.138-.783-.578-1.574-1.157-1.688h-.165a5.92 5.92 0 01.823 2.975zm5.782-3.135h.579c1.388 1.072 1.447 4.803 0 5.868-.171.047-.572-.134-.5.161 2.67 1.146 2.21-7.959-.079-6.03zm-5.861 6.431c1.71-.67 1.46-6.7-.25-6.914a.745.745 0 00-.568.092.77.77 0 00-.34.471c.25 0 .296-.248.658-.16 1.894.716 1.736 6.699-.658 6.19a.883.883 0 00.517.392c.215.06.443.034.64-.071zm-28.077.241a4.672 4.672 0 001.651 1.126c3.29.87 5.506-2.178 5.118-5.145a4.613 4.613 0 00-.658-1.782 4.522 4.522 0 00-1.316-1.354c-1.552-.924-4.111-.395-4.953.804-.089.453-.2.9-.336 1.34-.084.453-.194.9-.328 1.34-.106.241-.428.355-.415.67a4.848 4.848 0 001.243 2.974l-.006.027zm17.104-8.28c.526.107.829.583 1.158.563-.31-.154-.796-.67-1.316-.804-.244-.06-.882-.215-.993.16.388.208.763 0 1.157.08h-.006zm1.316 1.206h-8.263v6.753c4.881-.288 9.789-.55 14.617-.885-.066-.388.125-.522.08-.884-.172-.214-.83.054-.994-.16-.06-1.34 0-2.278 0-3.538h.829a4.98 4.98 0 01.085-1.206c-.223-.16-.723-.047-1.079-.08-.5-.67-.796-1.534-1.73-1.769.165.724.704 1.079.908 1.769h-3.29a4.933 4.933 0 00-1.815-1.93c-.46.188-1.546-.623-1.901 0 .697.51 2.013 0 2.473.67-.21.087-.388-.248-.493 0 .486.298.863.75 1.072 1.287-.447-.128-.73-.898-.493 0l-.007-.027zm6.933-1.608c.546-.79.928-1.728 1.487-2.492 0-.215 0-.462-.08-.563.08 0 .1.06.165.08.066.02.093.175.165.242 2.907.087 5.71.281 8.506.482a8.1 8.1 0 00.743 1.447c.385.56.665 1.187.83 1.849 0 .234-.165.71.163.884.047-1.95-1.085-3.45-1.822-4.904-3.105-.08-5.887-.482-8.913-.67-.658 1.602-2.21 2.774-2.066 4.904h.414c.296-.107.198-.924 0-1.045.237 0 .448 0 .408-.24v.026zm-17.676-3.859c0 .06 0 .154.085.161.244.931.698 1.89.987 2.894.29 1.005.23 2.204 1.072 2.733a20.134 20.134 0 00-1.15-5.868c-.33 0-.797-.074-.994.08zm13.815 0c.5.054 1.008 0 1.486-.16-3.822-.242-7.236-.798-11.058-.75 3.173.488 6.371.783 9.578.883l-.006.027zm-15.526-1.286c.132.462.658.523.83.965h1.236c.06-1.005-1.276-1.052-2.066-.965zm-26.938-.482c-1.678.073-3.533.087-5.204.16-1.401.054-2.572-.114-3.29.483.059.56.087 1.124.086 1.688a5.648 5.648 0 002.632.322c2.763-.121 6.052-.161 8.756-.08-.494.482-.217 1.714-.83 2.09-3.374.106-7.42.354-10.729 0-.157-.55-.118-1.287-.5-1.608a8.51 8.51 0 00-3.552-.402c-.546 0-1.276 0-1.566.321.527.315 2.099-.382 1.816.724-.467.294-1.316.22-2.066.24v1.528c1.033.067 2.375-.167 3.138.161a5.45 5.45 0 01.336 2.492c-.869.342-2.362.107-3.5.16-.342 2.01 1.349 1.77 3.138 1.85 9.598.409 21.472 0 31.05.482.356-1.226.75-2.68 1.08-3.859.104-.395.407-1.038.078-1.286-.73.442-.414 1.896-.993 2.492a22.216 22.216 0 01-4.54-.08c-.039-2.11.178-4.468-.493-5.949-3.947 0-8.045-.167-11.315.482.139-.382.533-.368.658-.804.125-.435-.079-.904 0-1.447-1.256-.388-2.69-.234-4.21-.16h.02zm21.143 4.02c-.112.187-.375.227-.58.32.326.065.657.092.988.081.79-2.793 2.52-5.185 6.447-4.421.059-.442-.106-.67-.086-1.045-4.243-.858-6.44 1.587-6.77 5.064zM1.184 54.965c.279-.013.558.014.829.08.164-.24.046-.763.079-1.125-.197-.154-.658-.053-.987-.08a3.41 3.41 0 00.08 1.125zm41.543-1.849c-.368-.603-2.394-.549-3.138-.402a5.075 5.075 0 00-2.809 1.688c-.796.985-1.013 2.305-1.408 3.538-.585 0-1.315.127-1.973.16-.94.04-1.901-.14-2.23.242-.033.515.657.301.908.321 1.52.094 2.993.074 4.38.08.784-3.081 2.632-5.426 6.934-4.823-.039-.797-1.157-.61-1.815-.563-2.099.135-3.822.959-4.546 1.93 0-.054 0-.1.086-.08.907-1.649 3.013-2.117 5.624-2.09h-.013zM1.184 51.911c-.19.268 0 .878-.079 1.287.158.14.546.053.822.08a1.76 1.76 0 00.086-1.34c-.349.067-.585-.214-.829 0v-.027zm-.066-.723c.763.368 1.237-.523.908-1.206-.658 0-.987.435-.908 1.206zm36.84-1.769c-.323.496-.125 1.005-.244 1.689.112.046.152.167.165.321.434.114 1.013.08 1.486.16.166-.29.225-.633.165-.964-.276-.134-.763-.06-.908-.321.375.04.513-.148.908-.08v-.617c-.224-.315-1.145-.315-1.572-.16v-.028zm3.223-.321c0 .08.105.06.086-.08a20.089 20.089 0 00-.25-3.779c-.06 1.394.144 2.532.164 3.859zM1.184 39.612c.046.522-.06 1.112 0 1.607.04.322.119.75.336.885-.125-.891.204-2.13-.086-2.68 0 .107-.184.087-.25.16v.028zm.5-2.01c.138-.583.572-.884.579-1.608h-.237c-.138.462-.473 1.146-.329 1.608h-.013zm.908 3.062c.51-1.584.92-3.2 1.224-4.837h-.803c-.454 1.34-.895 3.215-.408 4.83l-.013.007zm5.447-5.876v.241c-.197 1.601-.487 3.437-.658 5.072-.053.482.099.985-.25 1.34 0-1.106-.04-2.198 0-3.216.04-1.018.329-2.345-.164-3.142h-.73c-.612 2.914-1.316 5.768-1.974 8.608.408 0 .717-.321 1.158-.482a12.877 12.877 0 012.309-.482 14.584 14.584 0 012.48-.322c.77 0 .993.496 1.486.67.382.107.658 0 .987.08.217-2.391.362-4.85.5-7.322a57.43 57.43 0 00-5.124-1.045h-.02zm33.55-1.608c.171 4.958.605 10.525.743 15.362 0 .77-.158 1.681.33 2.01.42-1.407.164-3.276.085-5.145-.158-3.578-.415-7.155-.58-10.619-.032-.576.086-1.413-.414-1.849h-.164v.241zM3.263 46.204a5.746 5.746 0 00.164 1.527c4.303-.214 8.848-.61 13.052-.67-4.315.436-8.92.583-13.157 1.126.197 2.117.138 4.522.579 6.592 7.644.1 15.677.16 23.117-.161-1.362-.174-3.119 0-4.454-.16 1.46-.242 3.29-.121 4.454-.67 0-.356.256-.45.17-.885-.262-.148-.815 0-.828-.402-.013-.402.592-.335.743-.67.349-.904-.25-1.293-.579-1.769.04-.314.619-.1.658-.401v-1.046c-1.02-.442-.763-1.42.494-1.205 1.013.167 1.315.817 1.4 1.849.211-1.803-.065-4.16.165-5.708.191.281.698.402.83.804.056.444.082.892.078 1.34.028 1.639.14 3.276.335 4.903v1.019c.047.114-.098.415.08.402v-.483c0-2.27-.152-4.837-.08-6.913.902.08 1.757.214 2.724.24.053-.38.136-.757.25-1.125 2.395-.67 5.026-1.165 7.348-1.929-.184-3.095-.079-6.465-.5-9.332a28.202 28.202 0 00-5.118-1.769 19.801 19.801 0 00-6.111-.723c-6.349.275-13.223 1.186-19.157 2.01-2.368.335-4.256.301-4.953 2.17 7.822-1.199 16.446-2.01 24.524-2.733-.184 2.405-.48 5.36-.822 7.805a12.98 12.98 0 01-.5 2.492 5.812 5.812 0 01-1.783 1.849c-.681.134-1.372.215-2.066.24a470.253 470.253 0 01-17.01 1.529c-.592.04-1.217 0-1.73.08-.132 0 0 .04.078.081.658.235 1.935 0 2.81 0 1.973-.087 4.223-.107 6.025-.241 2.599-.194 4.862-.57 7.355-.563-6.039.67-12.164 1.24-18.584 1.527v-.026zM49.207 30.44c.309 1.923.704 3.765.987 5.708 8.11 2.271 16.702 4.08 24.833 6.358a3.708 3.708 0 013.053.16c-.086 3.518.164 7.684.164 11.738 0 1.091.31 3.162-.243 3.697-.803.764-2.448-.073-3.553.242-.19.375-.282.85-.829.884a2.921 2.921 0 00.5 1.93c.237.247.908.073 1.237.24 0 .999.217 2.191-.908 2.09.04.39-.085.939.08 1.206.657.275 1.795-.12 2.4.08a3.627 3.627 0 010 2.332c-.782.255-2.026-.154-3.223 0-.408 1.3-.434 2.553-1.072 3.698-.21.375-.58.67-.58.965 0 .804 1.23 1.507 1.902 1.849 1.145.489 12.065.958 13.045 1.206-26.15.134-60.943 0-87-.067 4.026-.603 5.598-1.575 8.466-3.31-.782-1.467-1.776-2.72-1.736-4.984-1.44-.328-3.184.127-4.54-.16-.926-.202-1.354-1.027-1.814-1.61v-3.35c0-1.218-.204-2.592.164-3.215.27-.482.836-.482 1.237-.75-.099-.301.303-.596.165-1.045-.171-.556-1.033-.348-1.487-.965-.276-.402-.342-1.387-.329-2.492.013-1.105-.072-2.492.25-3.135.257-.516.888-.67 1.401-1.045-.052-.824.04-2.084 0-3.135-.046-.335-.612-.154-.743-.402-.112-.536-.553-.75-.822-1.126.105-1.802-.29-4.093.493-5.232a3.054 3.054 0 01-.077-1.678c.132-.555.416-1.06.82-1.457-.092-.536.145-.764.25-1.126a4.362 4.362 0 011.566-.24c.349-.912.349-1.91.908-2.493s3.197-1.078 4.545-1.045c.474 0 .967.241 1.402.241a22.272 22.272 0 002.631-.402l2.723-.321a40.252 40.252 0 005.368-.724c.461-.12.803-.422 1.237-.563.994-.308 2.29-.187 3.388-.401 3.105-.59 6.579.321 9 .964.536.206 1.088.367 1.65.482 1.158.094 2.665-.341 3.882-.482a66.045 66.045 0 001.974-.241 5.637 5.637 0 012.966.16c.288.171.595.306.915.403.5.067.993-.134 1.487-.08.623.166 1.231.39 1.815.67l.053-.027z" fill="#1D1D1B"/><path fill-rule="evenodd" clip-rule="evenodd" d="M33.419 34.701c-.04-.724-.011-1.451.085-2.17 1.119 0 1.401.777 1.816 1.447a1.188 1.188 0 00-.58.16c.047.443.58.402.823.67a11.346 11.346 0 01-2.144-.107z" fill="#1D1D1B"/><path fill-rule="evenodd" clip-rule="evenodd" d="M77.219 46.927v-1.206c-.658-.167-1.316-.288-1.901-.482.657 3.35 1.02 7.101 1.9 10.29.317.067.106-.375.165-.563a7.598 7.598 0 00-.085-1.849v-4.314a7.948 7.948 0 00-.08-1.849v-.027zM72.1 44.516c.316 2.13.592 4.3.987 6.35v.322c.204 1.273.4 2.566.578 3.859-.052.375.454.207.744.24h1.316a978.8 978.8 0 01-1.573-10.37c-.434 0-.658-.247-1.151-.24-.237-.068-.658-.356-.908-.161h.007zm0 10.45h.408c-.58-3.557-1.112-7.168-1.652-10.772a56.982 56.982 0 01-2.23-.482c.658 3.704 1.204 7.456 1.816 11.174h.743c.145.188.658 0 .915.08zM68.154 49.5c-.263-2.124-.658-4.093-.994-6.19-.79-.221-1.631-.389-2.473-.563.658 3.859 1.316 7.764 1.973 11.657v.08c.093.261.58.134.908.16h1.487a8.66 8.66 0 00-.25-1.34 2.228 2.228 0 00-.165-.883 6.601 6.601 0 00-.164-1.126 2.123 2.123 0 00-.164-.804v-.16a2.26 2.26 0 00-.165-.805l.007-.026zm-7.618-7.691c.658 4.1 1.256 8.32 1.973 12.38.862 0 1.671.094 2.48.161-.657-4.02-1.315-8.04-1.973-11.978-.875-.14-1.671-.362-2.48-.563zm-4.704-.804c.58 4.314 1.316 8.448 1.974 12.729.685.082 1.376.109 2.065.08.165.188.658.033.987.08-.177-.763-.25-1.627-.493-2.33v-.081a2.257 2.257 0 00-.165-.804c-.5-3.156-1.243-6.076-1.736-9.245a19.313 19.313 0 00-2.145-.563.779.779 0 00-.579-.16c0 .12 0 .3.086.32l.006-.026zm-.085 9.727c-.658-3.53-1.316-7-2.066-10.45-.895-.201-1.684-.496-2.631-.67.776 4.69 1.684 9.191 2.565 13.746.83 0 1.448.148 2.31.08.795.37.052-1.4 0-1.848v-.16c-.073-.222 0-.564-.165-.724l-.013.026zm-4.296 4.422c-1.316-8.2-3.118-16.42-4.296-24.52.823-.173.79.744.915 1.207.175.524.31 1.062.407 1.607.224-.455-.059-1.112-.078-1.607a7.504 7.504 0 01-.086-1.126c.112.08.31.08.414.16.547.222.415.966.494 1.448.263 1.487.658 3.35.908 4.904 8.88 2.184 17.946 4.187 26.84 6.35.184 0 0-.395.085-.562.086-.168-.04-.302.08-.322.118-.02.25.242.5.242.374.28 0 1.3.243 1.688v4.1c.059.562-.106 1.34.085 1.768v3.94c.053.542-.112 1.286.08 1.688-.06.341.15.958-.165 1.045-.612.167-.454-.416-.744-.563-7.828-.871-15.729-1.668-23.53-2.573.024.3.079.597.164.885 4.604.57 9.282 1.038 13.952 1.527.152 0 .172.08.086.08-5-.352-9.955-.754-14.867-1.205-.658-2.68-1.217-5.507-1.901-8.2 0-.322-.139-.556-.165-.885-.151-.113 0 .704.086.885.21 1.782.467 3.51.743 5.225-.007.327.04.653.138.965a5.8 5.8 0 00.165 1.286c-.066.308.098.389.085.67-.237 0-.546.047-.658-.08l.02-.027zm-1.896-.322c-1.046-.08-2.105-.147-3.059-.321-.092-3.122-.394-6.03-.493-9.165.138.161.085.503.164.724.015.292.07.58.165.857.276 2.358.612 4.69.993 6.914.392.27.845.436 1.316.482.17.241.974.288.914.483v.026z" fill="#F49E28"/><path fill-rule="evenodd" clip-rule="evenodd" d="M21.787 26.488c.967-1.293 3.178-.737 4.605-1.085l6.118-.744c1.868-.074 2.631 1.34 3.118-1.434.224-1.172 0-1.159.474-2.01a22.6 22.6 0 001.375-2.9l-.454-1.193c.566-.294.96-.837 1.598-.743.04 1.4.06 1.755.171 2.988.112 1.232.04 2.01.125 3.128 1.941 1.796 2.04.134 3.158-2.465.349-.81.895-2.311 1.237-2.894.493-.83 1.151-1.052 1.71-1.729a14.292 14.292 0 001.5-2.05c1.283-2.183.23-6.987 4.546-1.34 1.026 1.34 1.973 2.72 3.118 4.02 1.145 1.3 2.125 2.566 3.236 3.892 1.112 1.327 1.921 3.102 2.98 4.536.448.61 1.198 1.554 1.856 1.159.546-.328 1.013-1.662 1.677-1.876.283.53.58 1.708.954 1.789.375.08 1.04-.57 1.276-1.045-.118-1.434 5.566 12.28 5.881 12.574 2.303 2.164 2.178 1.212 5.263 2.224.724.235 3.29 4.301 4.046 4.991.322.302 1.06 1.22 1.072-.04a21.058 21.058 0 00-.447-2.553c-.25-.61-.875-.63-1.27-.67-1.079-.174-1.934-3.738-2.9-4.193-4.474-2.104-7.612-13.285-11.888-17.05-.993-.884-1.224-1.654-2.243-.57-.52.557-.934 1.897-2.257 2.078-1.158.154-1.506-.603-2.375-1.595-.703-.804-1.4-1.534-2.138-2.358-2.874-3.182-5.644-5.949-8.36-9.325-1.507-1.87-.974-1.896-4.178 2.01-1.651 2.01-5.263 3.69-7.236 4.609-3.204 1.48-2.02 2.297-4.092 4.763-.94 1.112-1.132 1.52-2.342 1.882-1.033.302-12.572 1.079-12.933 3.035-3.23 4.093-2.152 5.286 4.045 2.157l-.026.027z" fill="#1D1D1B"/><path fill-rule="evenodd" clip-rule="evenodd" d="M46.576 19.3a53.658 53.658 0 004.164 4.394c1.145 1.14 1.06.998 2.336.262 1.276-.737 1.315-.282 2.578-.57-.059-.71-1.375-4.796-1.92-5.36-1.73-1.788-2.303-1.58-2.948-4.019-.815-3.101-2.236-2.586-3.092-.375-.657 1.648-.46 4.1-1.098 5.668h-.02z" fill="#1D1D1B"/><path fill-rule="evenodd" clip-rule="evenodd" d="M44.43 29.83c.67.242 1.31.566 1.902.966-.079.756.257 1.426.085 2.01-.19.14-.486-.215-.657-.403-.592-.616-1.316-1.527-1.974-2.09-1.046.1-2.256.201-3.388.322-1.131.12-2.23.516-2.973 0 1.184-.375 2.842-.288 4.131-.563 1.007-.034 1.868-.214 2.888-.241h-.013zM1.119 51.188c.763.368 1.237-.523.908-1.206-.658 0-.987.435-.908 1.206zm.065.723c-.191.268 0 .878-.08 1.287.159.14.547.053.823.08a1.76 1.76 0 00.086-1.34c-.349.067-.586-.214-.83 0v-.027zm.001 3.055c.278-.013.557.014.828.08.165-.24.046-.763.08-1.125-.198-.154-.658-.053-.987-.08a3.41 3.41 0 00.079 1.125z" fill="#F49E28"/><path d="M75.034 90.693l2.566-.355v-3.35c.309-.515.611-1.038.94-1.554.375.757.763 1.508 1.145 2.245.381.736.776 1.46 1.164 2.177l3.085-.53a175.907 175.907 0 01-1.815-3.195c-.599-1.085-1.197-2.237-1.81-3.383.58-.938 1.165-1.87 1.744-2.78.579-.911 1.171-1.782 1.763-2.68h-3.033c-.539.858-1.065 1.722-1.591 2.6-.527.877-1.053 1.788-1.586 2.68v-5.28H75.04v13.398l-.006.007zm-5.434.918c2.053-.221 3.224-1.668 4.092-3.53a51.438 51.438 0 01-1.928-1.863c-.546 1.052-1.124 1.769-2.092 1.85a1.667 1.667 0 01-.934-.246 1.71 1.71 0 01-.651-.726 5.44 5.44 0 01-.605-2.68c-.017-.93.19-1.85.605-2.68.142-.315.363-.587.642-.787.278-.2.604-.321.943-.352.889 0 1.507.577 2.033 1.541l1.882-2.217c-.823-1.655-1.974-2.867-3.882-2.867a4.157 4.157 0 00-2.018.622 4.253 4.253 0 00-1.468 1.541 8.351 8.351 0 00-1.013 2.392 12.272 12.272 0 000 5.942 7.45 7.45 0 001.026 2.298 3.619 3.619 0 001.438 1.37 3.537 3.537 0 001.93.392zm-10.525.824a3.788 3.788 0 001.796-.51 3.872 3.872 0 001.348-1.312c.401-.661.684-1.39.835-2.15a14.13 14.13 0 00.31-3.055v-8.04h-2.632v8.28c0 2.057-.657 3.056-1.697 3.102-1.04.047-1.67-.958-1.67-3.128v-8.274h-2.632v8.435a14.087 14.087 0 00.296 3.041c.147.75.435 1.465.848 2.104.34.517.81.931 1.36 1.2a3.334 3.334 0 001.772.32l.066-.013zM47.694 84.63v-3.637h1.67c.863 0 1.389.596 1.389 1.782 0 1.185-.507 1.842-1.375 1.849h-1.684v.006zm-2.56 7.906h2.56V87.94h1.118c.31.764.619 1.52.921 2.278.303.757.619 1.52.948 2.277l2.96-.08c-.395-.864-.757-1.729-1.125-2.593l-1.099-2.612a4.007 4.007 0 001.383-1.77 7.38 7.38 0 00.52-2.887 6.69 6.69 0 00-.823-3.584 3.316 3.316 0 00-1.282-1.234 3.24 3.24 0 00-1.724-.38h-4.362v15.186l.007-.007zm-6.71 0h2.566v-11.49h2.757v-3.684h-8.092v3.664h2.763v11.476l.007.034z" fill="#1D1D1B"/><path fill-rule="evenodd" clip-rule="evenodd" d="M29.037 92.294l2.572.1v-5.7c.29-.77.58-1.541.875-2.318l.875-2.332c.29-.777.586-1.56.882-2.344.296-.784.585-1.561.881-2.345h-2.881c-.322.918-.658 1.829-.96 2.74-.303.911-.658 1.822-.948 2.727-.322-.918-.658-1.83-.947-2.74-.29-.911-.658-1.816-.96-2.727h-2.902c.283.77.58 1.548.869 2.318.29.77.592 1.554.881 2.331l.875 2.345c.29.777.586 1.574.888 2.358v5.594-.007zm-8.617-6.21c.17-.67.348-1.34.52-2.01.17-.67.348-1.34.539-2.01.164.67.335 1.387.5 2.084l.513 2.09-2.073-.094v-.06zm-4.08 5.36c.895.087 1.79.167 2.698.24.204-.83.421-1.667.658-2.505l3.559.215c.21.89.44 1.768.658 2.68.907.053 1.822.113 2.736.16-.329-1.26-.658-2.519-1-3.772-.342-1.252-.658-2.505-.98-3.758l-.987-3.718c-.322-1.233-.657-2.465-.973-3.698h-2.447c-.33 1.206-.658 2.412-.98 3.604-.323 1.193-.658 2.392-.987 3.578-.33 1.185-.658 2.351-.974 3.517-.316 1.165-.658 2.318-.967 3.477l-.013-.02zM5.73 90.17l2.236.335c.145-.61.303-1.22.448-1.836.145-.616.309-1.226.46-1.842.152-.617.31-1.246.46-1.87.152-.622.31-1.252.461-1.882.152.67.31 1.34.46 1.963.152.623.323 1.34.474 1.963.152.623.31 1.34.468 2.01.157.67.309 1.34.467 2.01l2.236.26c.25-1.138.507-2.277.757-3.423.25-1.145.506-2.297.763-3.456.256-1.16.52-2.332.776-3.504.257-1.172.507-2.358.77-3.537H14.34c-.138.67-.276 1.34-.408 2.01l-.395 2.01c-.131.67-.276 1.34-.407 2.009-.132.67-.27 1.34-.402 1.963-.151-.67-.296-1.34-.447-2.01-.151-.67-.296-1.34-.447-2.01-.152-.67-.296-1.34-.441-2.01-.145-.67-.296-1.34-.44-1.969H8.722c-.158.67-.303 1.273-.447 1.91-.145.636-.303 1.158-.448 1.828-.144.67-.296 1.253-.44 1.87-.145.616-.303 1.239-.448 1.855-.138-.67-.276-1.266-.408-1.896l-.394-1.89c-.132-.629-.277-1.245-.408-1.861-.132-.617-.27-1.24-.395-1.856h-2.69c.25 1.032.506 2.077.763 3.128.256 1.052.506 2.117.763 3.183.256 1.065.52 2.17.77 3.255.25 1.086.52 2.198.789 3.303v-.013z" fill="#F49E28"/></svg>