<svg width="24" height="19" fill="none" xmlns="http://www.w3.org/2000/svg"><path d="M9 8a3 3 0 106 0 3 3 0 00-6 0z" stroke="#F39200" stroke-width="1.4" stroke-linecap="round" stroke-linejoin="round"/><path d="M16.95 12.82l-3.713 3.674a1.76 1.76 0 01-2.473 0L7.05 12.82a6.902 6.902 0 01-1.916-3.546 6.855 6.855 0 01.399-4A6.941 6.941 0 018.11 2.167 7.054 7.054 0 0112 1c1.384 0 2.738.406 3.889 1.167a6.941 6.941 0 012.578 3.108 6.855 6.855 0 01.399 4 6.901 6.901 0 01-1.916 3.546z" stroke="#F39200" stroke-width="1.4" stroke-linecap="round" stroke-linejoin="round"/></svg>