<svg width="43" height="58" fill="none" xmlns="http://www.w3.org/2000/svg"><path d="M21.5 0A21.42 21.42 0 006.306 6.37 21.858 21.858 0 000 21.716c0 15.592 20.03 35.12 20.882 35.944a.882.882 0 001.236 0C22.97 56.836 43 37.31 43 21.717A21.858 21.858 0 0036.694 6.37 21.42 21.42 0 0021.5 0zm0 31.67a9.784 9.784 0 01-5.475-1.677 9.934 9.934 0 01-3.63-4.467 10.048 10.048 0 01-.56-5.75 9.985 9.985 0 012.697-5.097 9.824 9.824 0 015.046-2.724 9.764 9.764 0 015.693.566c1.8.753 3.34 2.03 4.422 3.666a10.025 10.025 0 01-1.227 12.567A9.81 9.81 0 0121.5 31.67z" fill="#F39200"/></svg>