<svg width="119" height="17" fill="none" xmlns="http://www.w3.org/2000/svg"><g clip-path="url(#clip0_323_19353)" fill-rule="evenodd" clip-rule="evenodd"><path d="M62.25 0a6.436 6.436 0 00-3.635 1.123 6.65 6.65 0 00-2.41 3 6.814 6.814 0 00-.371 3.864 6.724 6.724 0 001.794 3.42c1.181 1.207 3.968 2.963 4.133 4.827 0 .133.052.26.143.354a.485.485 0 00.693 0 .506.506 0 00.144-.354c.165-1.84 2.952-3.59 4.132-4.826a6.73 6.73 0 001.788-3.421 6.82 6.82 0 00-.372-3.86 6.656 6.656 0 00-2.407-2.999A6.442 6.442 0 0062.251 0z" fill="#F43"/><path d="M62.252 9.049c.453 0 .895-.137 1.272-.394a2.33 2.33 0 00.844-1.05c.173-.429.219-.9.13-1.353a2.357 2.357 0 00-.627-1.199 2.276 2.276 0 00-1.173-.64 2.245 2.245 0 00-1.323.133 2.302 2.302 0 00-1.028.862 2.377 2.377 0 00.285 2.955c.43.44 1.012.686 1.62.686z" fill="#fff"/><path d="M111.978 12.669h-.974V9.79h1.022c.194-.03.393-.014.58.048a1.256 1.256 0 01.801.819c.061.19.078.394.047.593 0 1.05-.59 1.442-1.476 1.442v-.024zm4.422-7.372v9.049h2.102v-9.05H116.4zm-7.491 0v9.049h3.17c2.066 0 3.542-1.08 3.542-3.21 0-2.02-1.311-3.082-3.495-3.082h-1.128V5.32l-2.089-.024zm-1.24 1.695V5.32h-7.037v1.695h2.473v7.372h2.096V7.016l2.468-.024zm-11.37 5.858c-1.11 0-1.677-.917-1.677-3.017 0-2.1.59-3.016 1.771-3.016 1.18 0 1.712.917 1.712 3.016 0 2.1-.59 3.017-1.818 3.017h.012zm-1.83-7.553h-1.943V17h2.096v-3.674c.234.381.56.695.947.912.386.216.82.328 1.261.325 2.043 0 3.454-1.671 3.454-4.718 0-3.046-1.376-4.7-3.348-4.7a2.682 2.682 0 00-1.355.353c-.414.236-.76.579-1.006.993l-.1-1.17-.006-.024zm-5.733 6.901c-.17.239-.398.43-.66.557-.261.126-.55.184-.84.167a1.158 1.158 0 01-.96-.319 1.208 1.208 0 01-.368-.96c0-1.032.727-1.406 2.527-1.406h.301v1.961zm2.09-3.994c0-2.195-1.092-3.016-3.312-3.016-1.093 0-2.167.29-3.117.845v1.81a5.372 5.372 0 012.875-.905c1.004 0 1.464.362 1.464 1.339v.5H88.4c-3.212 0-4.635 1.086-4.635 2.92 0 1.834 1.087 2.866 2.716 2.866.4.037.803-.02 1.179-.167.375-.146.713-.378.988-.678h.088c.024.245.075.486.154.718h2.048a23.171 23.171 0 01-.106-2.214V8.204h-.006zm-9.64 6.184h2.49L79.32 7.842l3.95-5.972h-2.173l-3.79 5.761v-5.76h-2.131v12.517h2.131V8.512l3.879 5.876zm-57.343-1.719H20.89c.59-1.37.75-3.837.75-5.43v-.271h2.213v5.7h-.011zm7.285-5.852c1.039 0 1.357.88 1.357 2.015v.217h-2.951c.059-1.442.59-2.196 1.57-2.196l.024-.036zM15.312 5.32v3.59h-2.804V5.32h-2.102v9.049h2.102v-3.765h2.804v3.783h2.096v-9.05l-2.096-.017zm11.565 7.348h-.933V5.32h-6.122v.778c0 2.214-.136 5.08-.88 6.594h-.655v3.764h1.943v-2.07h4.723v2.07h1.942V12.67h-.018zm14.357 1.719h2.362L40.23 9.562l2.952-4.223h-2.096l-2.952 4.223V5.339h-2.107v9.049h2.101v-4.38l3.105 4.38zm-6.7-.603v-1.75a5.232 5.232 0 01-2.745.839c-1.535 0-2.114-.736-2.202-2.25h5.036V9.489c0-3.155-1.358-4.343-3.46-4.343-2.556 0-3.772 1.997-3.772 4.735 0 3.155 1.517 4.682 4.197 4.682a5.139 5.139 0 002.952-.79l-.006.012zm13.112.79c-2.804 0-4.133-1.671-4.133-4.7 0-2.756 1.393-4.717 4.074-4.717a4.71 4.71 0 012.255.434v1.81a4.065 4.065 0 00-2.025-.555c-1.376 0-2.137 1.007-2.137 2.974 0 1.87.62 3.059 2.12 3.059a3.37 3.37 0 002.042-.604v1.744a3.518 3.518 0 01-2.173.555h-.023zM6.516 14.4H8.64V1.87h-3.1C2.42 1.87.784 3.505.784 5.918c0 1.93.898 3.065 2.503 4.223L.5 14.388h2.308l3.106-4.736-1.075-.742c-1.305-.899-1.942-1.604-1.942-3.113 0-1.339.92-2.238 2.662-2.238h.957V14.4z" fill="#000"/></g><defs><clipPath id="clip0_323_19353"><path fill="#fff" transform="translate(.5)" d="M0 0h118v17H0z"/></clipPath></defs></svg>