<svg width="63" height="21" fill="none" xmlns="http://www.w3.org/2000/svg"><g clip-path="url(#clip0_365_13754)"><path d="M60.106 7.735h2.89c-.365-2.897-2.42-4.42-5.276-4.42-2.89 0-4.823 1.579-4.823 4.29 0 3.082 2.49 3.769 3.813 4.047 1.707.353 3.378.39 3.378 1.95 0 1.058-.835 1.578-2.02 1.578-1.462 0-2.437-.78-2.681-2.19h-2.856c.174 3.044 2.247 4.678 5.294 4.678 2.82 0 5.136-1.374 5.136-4.345 0-3.193-2.664-3.769-4.527-4.066-1.271-.204-2.664-.39-2.664-1.82 0-1.002.714-1.615 1.915-1.615 1.393 0 2.23.836 2.42 1.913zM50.937 3.78h-2.734v13.46h2.734V3.78zm-10.983 8.764h3.57c-.557 1.448-1.811 2.135-3.256 2.135-2.543 0-3.727-2.098-3.727-4.178 0-2.098 1.115-4.233 3.71-4.233 1.584 0 2.768.78 3.22 2.172h2.944c-.505-3.138-3.082-4.939-6.13-4.939-3.76 0-6.582 2.73-6.582 7.037 0 4.364 3.065 6.945 6.565 6.945 3.448 0 6.146-2.396 6.146-6.146V10.24h-6.46v2.303zM27.449 3.501c-3.135 0-5.45 2.098-5.433 5.59h2.82c-.034-1.523.871-2.916 2.473-2.916 1.393 0 2.212 1.04 2.212 2.228 0 1.188-.819 1.857-2.334 2.581-2.072.984-3.552 1.615-5.067 2.172v4.085h10.552v-2.748h-7.244l.036-.011c1.232-.399 2.158-.831 3.256-1.344 2.35-1.114 3.691-2.507 3.691-4.883 0-2.916-2.02-4.754-4.962-4.754z" fill="#403F41"/><path d="M14.602 12.507c-3.553.018-4.127 2.302-4.319 4.233l-.087.854h-.714l-.087-.854c-.191-1.931-.783-4.215-4.214-4.233-.574-1.263-.818-2.284-.818-3.435 0-2.878 2.211-5.57 5.485-5.57 3.273 0 5.45 2.673 5.45 5.588 0 1.133-.104 2.154-.696 3.417zM9.813.01c-5.398 0-9.82 4.717-9.82 10.491 0 5.793 4.422 10.51 9.82 10.51 5.45 0 9.856-4.717 9.856-10.51 0-5.774-4.406-10.49-9.856-10.49z" fill="#29B24A"/></g><defs><clipPath id="clip0_365_13754"><path fill="#fff" d="M0 0h63v21H0z"/></clipPath></defs></svg>