<svg width="19" height="20" fill="none" xmlns="http://www.w3.org/2000/svg"><path d="M16.276 3.277A9.455 9.455 0 001.13 14.216l-1.003 4.87a.356.356 0 00.057.283.363.363 0 00.386.15l4.765-1.13A9.454 9.454 0 0016.27 3.277h.008zm-1.49 11.88a7.413 7.413 0 01-8.525 1.396l-.668-.331-2.926.692v-.038l.617-2.951-.326-.642a7.398 7.398 0 016.595-10.76c1.963 0 3.845.779 5.234 2.166l.032.045a7.403 7.403 0 01-.037 10.427l.005-.005z" fill="#ABB1AB"/><path d="M14.527 13.01c-.359.564-.928 1.253-1.638 1.427-1.253.3-3.162 0-5.552-2.21l-.03-.027C5.228 10.258 4.677 8.64 4.8 7.36c.073-.73.68-1.387 1.192-1.819a.682.682 0 011.065.251l.77 1.74a.677.677 0 01-.083.693l-.39.501a.665.665 0 00-.053.74 7.272 7.272 0 001.321 1.47c.544.523 1.16.965 1.83 1.311a.664.664 0 00.726-.153l.449-.456a.68.68 0 01.684-.19l1.83.523a.688.688 0 01.387 1.038z" fill="#ABB1AB"/></svg>