<svg width="19" height="21" fill="none" xmlns="http://www.w3.org/2000/svg"><path d="M16.177 3.777A9.454 9.454 0 001.03 14.716l-1.003 4.87a.356.356 0 00.058.283.363.363 0 00.386.15l4.765-1.13A9.454 9.454 0 0016.169 3.777h.008zm-1.49 11.88a7.413 7.413 0 01-8.526 1.396l-.667-.331-2.927.692v-.038l.617-2.951-.326-.642a7.398 7.398 0 016.596-10.76c1.962 0 3.845.779 5.233 2.166l.033.045a7.403 7.403 0 01-.038 10.427l.005-.005z" fill="#34D36A"/><path d="M14.427 13.51c-.358.564-.928 1.253-1.637 1.427-1.254.3-3.162 0-5.552-2.21l-.03-.027C5.128 10.758 4.577 9.14 4.7 7.86c.073-.73.68-1.387 1.191-1.819a.682.682 0 011.066.251l.77 1.74a.677.677 0 01-.083.693l-.391.501a.665.665 0 00-.053.74 7.272 7.272 0 001.322 1.47c.543.523 1.16.965 1.83 1.311a.664.664 0 00.725-.153l.449-.456a.68.68 0 01.684-.19l1.831.523a.688.688 0 01.386 1.038z" fill="#34D36A"/></svg>